<?xml version="1.0" standalone="no"?>
<!DOCTYPE svg PUBLIC "-//W3C//DTD SVG 20010904//EN"
 "http://www.w3.org/TR/2001/REC-SVG-20010904/DTD/svg10.dtd">
<svg version="1.0" xmlns="http://www.w3.org/2000/svg"
 width="500.000000pt" height="500.000000pt" viewBox="0 0 500.000000 500.000000"
 preserveAspectRatio="xMidYMid meet">

<g transform="translate(0.000000,500.000000) scale(0.100000,-0.100000)"
fill="#000000" stroke="none">
<path d="M1540 4803 c-94 -3 -420 -21 -606 -33 -236 -14 -373 -68 -505 -200
-63 -62 -84 -92 -122 -170 -73 -154 -78 -180 -88 -565 -12 -434 -10 -2934 3
-3040 18 -164 73 -282 174 -376 66 -61 128 -96 230 -130 192 -64 151 -62 1644
-64 1547 -2 1862 3 1990 33 276 65 423 202 490 457 22 85 23 103 52 910 19
550 17 1641 -5 2080 -21 432 -31 544 -58 627 -70 213 -218 352 -438 409 -97
25 -270 35 -1008 54 -493 13 -1508 17 -1753 8z m1103 -43 c136 0 206 -3 202
-10 -7 -12 -1086 -14 -1125 -2 -34 10 303 20 530 16 102 -2 279 -4 393 -4z
m-1283 -50 c563 -26 1707 -21 2405 11 251 11 347 1 502 -51 117 -40 185 -82
269 -166 89 -88 144 -195 175 -334 20 -90 21 -117 18 -560 -5 -604 -5 -1023 0
-1975 4 -721 3 -785 -13 -845 -75 -278 -284 -440 -649 -506 -70 -12 -134 -13
-452 -3 -514 17 -2219 17 -2440 1 -206 -15 -326 -2 -494 54 -204 68 -340 208
-398 409 -21 72 -22 339 -2 900 16 467 17 1750 0 2004 -18 283 -16 370 9 490
72 349 237 520 558 577 78 14 87 13 512 -6z"/>
<path d="M4230 4048 c-11 -12 -20 -33 -20 -47 0 -30 -66 -82 -218 -174 -104
-62 -141 -73 -312 -86 -106 -8 -117 -7 -142 12 -33 25 -75 17 -88 -17 -5 -13
-13 -27 -18 -30 -14 -8 -234 -71 -322 -91 -149 -34 -225 -62 -254 -90 -35 -36
-8 -105 41 -105 11 0 42 10 69 21 27 12 92 32 145 44 54 13 137 36 186 53 145
50 137 53 145 -53 4 -49 12 -135 18 -190 22 -209 31 -538 28 -1040 l-3 -520
-60 -2 c-176 -7 -411 -26 -432 -36 -30 -14 -40 -53 -22 -86 13 -23 21 -26 69
-25 153 3 506 24 585 35 91 11 178 9 430 -11 205 -17 363 2 392 47 19 29 10
68 -20 87 -19 13 -30 13 -82 1 -73 -18 -167 -19 -345 -4 -74 7 -191 12 -260
13 l-125 1 -6 700 c-3 385 -8 707 -12 715 -10 23 -38 406 -31 424 3 9 16 16
29 16 12 0 79 5 150 10 148 12 194 28 333 114 101 63 154 111 183 168 11 21
28 42 39 48 26 14 42 46 35 70 -16 52 -70 66 -105 28z"/>
<path d="M2400 4005 c-23 -27 -172 -121 -280 -177 -260 -133 -306 -143 -568
-128 -93 5 -201 16 -241 25 -142 30 -338 8 -434 -48 -37 -22 -123 -108 -173
-174 -19 -26 -17 -67 4 -86 36 -32 62 -21 141 61 89 91 141 119 250 132 60 8
96 7 162 -5 46 -9 102 -19 124 -22 22 -3 43 -11 47 -17 4 -6 8 -396 8 -866 0
-470 -4 -860 -8 -866 -4 -5 -43 -24 -88 -42 -135 -53 -467 -240 -478 -268 -12
-31 -5 -63 16 -78 32 -23 46 -20 113 20 100 61 296 166 364 195 l65 27 35 -20
c47 -26 89 -13 97 31 5 25 14 33 52 45 73 25 101 21 162 -25 63 -48 124 -78
160 -79 44 0 205 43 218 58 15 20 16 74 0 90 -16 16 -67 15 -118 -3 -23 -8
-57 -15 -76 -15 -27 0 -37 7 -61 42 -42 62 -81 81 -167 81 -39 0 -89 -5 -111
-11 -22 -7 -43 -8 -47 -4 -5 5 -7 386 -6 848 l3 839 150 6 c113 5 164 11 205
26 115 42 330 154 450 235 118 79 125 86 128 120 2 28 -2 40 -20 52 -29 20
-62 20 -78 1z"/>
<path d="M2346 1727 c-40 -38 -51 -70 -44 -131 21 -181 278 -158 278 25 0 50
-30 103 -70 124 -16 8 -51 15 -79 15 -42 0 -55 -5 -85 -33z"/>
</g>
</svg>
